<?xml version="1.0" standalone="no"?>
<!DOCTYPE svg PUBLIC "-//W3C//DTD SVG 20010904//EN"
 "http://www.w3.org/TR/2001/REC-SVG-20010904/DTD/svg10.dtd">
<svg version="1.0" xmlns="http://www.w3.org/2000/svg"
 width="100.000000pt" height="100.000000pt" viewBox="0 0 100.000000 100.000000"
 preserveAspectRatio="xMidYMid meet">
<metadata>
Created by potrace 1.14, written by Peter Selinger 2001-2017
</metadata>
<g transform="translate(0.000000,100.000000) scale(0.100000,-0.100000)"
fill="#000000" stroke="none">
<path d="M0 916 l0 -85 38 5 c20 3 56 10 79 16 34 8 50 7 83 -6 23 -9 46 -13
52 -10 20 13 68 5 96 -14 23 -17 39 -19 102 -15 41 3 79 11 85 17 6 7 20 18
33 25 12 6 22 18 22 25 0 18 33 46 54 46 10 0 50 15 89 34 40 19 81 36 92 39
11 3 -153 5 -365 6 l-385 1 3 -52 c2 -39 0 -49 -7 -38 -6 8 -11 32 -11 53 0
34 -2 37 -30 37 l-30 0 0 -84z"/>
<path d="M789 879 c-23 -24 -26 -33 -16 -44 14 -15 30 -9 23 10 -3 8 4 25 15
39 28 36 13 32 -22 -5z"/>
<path d="M986 822 c-12 -20 -91 -67 -139 -83 -29 -10 -44 -18 -35 -19 27 0 46
-83 41 -185 -4 -100 -10 -116 -64 -167 -45 -44 -52 -45 -86 -18 -16 13 -34 18
-49 14 -19 -5 -22 -3 -17 14 4 17 1 19 -21 15 -15 -3 -29 -9 -32 -14 -11 -18
-54 -8 -86 21 -38 35 -75 38 -111 10 -30 -24 -93 -35 -103 -19 -4 8 -9 7 -15
-2 -6 -10 -9 -7 -9 10 0 37 -12 17 -16 -26 -2 -23 6 -55 20 -84 22 -46 22 -47
2 -39 -39 13 -67 81 -67 160 0 72 0 72 -21 53 -16 -14 -33 -17 -82 -15 -33 2
-69 6 -78 8 -17 5 -18 -10 -18 -225 l0 -231 500 0 500 0 0 415 c0 228 -2 415
-4 415 -3 0 -7 -4 -10 -8z m-591 -522 c3 -5 1 -10 -4 -10 -6 0 -11 5 -11 10 0
6 2 10 4 10 3 0 8 -4 11 -10z"/>
<path d="M627 655 c-21 -44 -22 -84 -2 -91 8 -4 12 -10 9 -15 -3 -5 1 -6 9 -3
33 12 48 94 23 127 -18 23 -20 22 -39 -18z"/>
</g>
</svg>
